<?xml version="1.0" encoding="UTF-8" standalone="no"?>
<!-- Created with Inkscape (http://www.inkscape.org/) -->

<svg
   xmlns:dc="http://purl.org/dc/elements/1.1/"
   xmlns:cc="http://creativecommons.org/ns#"
   xmlns:rdf="http://www.w3.org/1999/02/22-rdf-syntax-ns#"
   xmlns:svg="http://www.w3.org/2000/svg"
   xmlns="http://www.w3.org/2000/svg"
   xmlns:sodipodi="http://sodipodi.sourceforge.net/DTD/sodipodi-0.dtd"
   xmlns:inkscape="http://www.inkscape.org/namespaces/inkscape"
   id="svg4187"
   version="1.1"
   inkscape:version="0.91 r13725"
   width="286.875"
   height="286.875"
   viewBox="0 0 286.875 286.875"
   sodipodi:docname="presidential-innovation-fellows-logo_paths.svg">
  <metadata
     id="metadata4193">
    <rdf:RDF>
      <cc:Work
         rdf:about="">
        <dc:format>image/svg+xml</dc:format>
        <dc:type
           rdf:resource="http://purl.org/dc/dcmitype/StillImage" />
        <dc:title></dc:title>
      </cc:Work>
    </rdf:RDF>
  </metadata>
  <defs
     id="defs4191" />
  <sodipodi:namedview
     pagecolor="#ffffff"
     bordercolor="#666666"
     borderopacity="1"
     objecttolerance="10"
     gridtolerance="10"
     guidetolerance="10"
     inkscape:pageopacity="0"
     inkscape:pageshadow="2"
     inkscape:window-width="1163"
     inkscape:window-height="645"
     id="namedview4189"
     showgrid="false"
     inkscape:zoom="1.5442266"
     inkscape:cx="154.6894"
     inkscape:cy="117.53457"
     inkscape:window-x="0"
     inkscape:window-y="0"
     inkscape:window-maximized="0"
     inkscape:current-layer="svg4187" />
  <path
     style="fill:#000000"
     d="m 135.68709,272.10937 c -4.23925,-4.70408 -1.60069,-11.48437 4.46916,-11.48437 3.369,0 7.03125,3.4181 7.03125,6.5625 0,0.89218 -0.87437,2.73372 -1.94304,4.09232 -2.3219,2.95182 -7.25865,3.38031 -9.55737,0.82955 z m 7.71406,-2.97896 c 2.17121,-4.05694 -2.14676,-7.73101 -5.70226,-4.85194 -1.90687,1.5441 -2.03045,2.04155 -1.04465,4.20515 1.36197,2.98919 5.29169,3.36591 6.74691,0.64679 z m -18.27712,-0.30229 c 1.18988,-7.88401 1.60145,-9.14062 2.9937,-9.14062 1.02862,0 1.27384,0.69232 0.91319,2.57812 -0.27118,1.41797 -0.76366,4.3711 -1.09439,6.5625 -0.39986,2.64941 -1.0725,3.98438 -2.00759,3.98438 -1.12374,0 -1.28545,-0.80045 -0.80491,-3.98438 z m 27.00837,-1.875 c -1.13577,-7.88689 -0.0682,-8.74705 4.50715,-3.6313 l 3.66962,4.10306 -0.59451,-4.33743 c -0.48726,-3.55495 -0.3313,-4.33745 0.86454,-4.33745 1.10198,0 1.61682,1.47313 2.10368,6.01943 0.90271,8.4293 -0.0199,9.30946 -4.4357,4.23183 l -3.61565,-4.15751 0.61656,3.98437 c 0.49983,3.23005 0.34312,3.98438 -0.82766,3.98438 -1.05658,0 -1.67071,-1.57274 -2.28803,-5.85938 z m -36.46634,3.5535 c -0.31388,-0.81795 -0.11632,-3.27047 0.43905,-5.45004 0.63451,-2.4902 0.67485,-4.07896 0.10856,-4.27533 -0.49565,-0.17188 -0.90117,-0.94367 -0.90117,-1.71512 0,-1.08913 0.68097,-1.25912 3.04688,-0.7606 4.09073,0.86196 5.04445,1.93704 2.78912,3.14404 -1.24482,0.66621 -2.07593,2.40299 -2.49856,5.22126 -0.67611,4.50866 -2.04862,6.27303 -2.98388,3.8358 z m -9.72856,-3.21749 c 0,-2.15005 -4.26486,-3.49448 -6.142359,-1.93629 -0.701532,0.58222 -1.71571,0.78652 -2.253732,0.454 -1.29779,-0.80207 6.513771,-10.6857 8.499881,-10.75452 1.13187,-0.0392 1.65809,1.18028 2.10123,4.86955 0.90213,7.51063 0.75969,9.14063 -0.79877,9.14063 -0.77344,0 -1.40625,-0.79802 -1.40625,-1.77337 z m -0.12624,-7.18072 c 0.29632,-1.52916 0.13832,-1.59802 -1.17188,-0.51065 -1.7918,1.48706 -2.0149,3.22514 -0.3425,2.66831 0.64453,-0.21461 1.32599,-1.18556 1.51438,-2.15766 z m 71.89561,7.78221 c -0.19761,-0.64453 -1.03047,-3.25781 -1.85079,-5.80728 -1.61518,-5.01982 -1.39497,-5.59261 2.50329,-6.51141 1.8822,-0.44362 2.57813,-0.25031 2.57813,0.71616 0,0.72809 -0.63281,1.56664 -1.40625,1.86344 -2.39552,0.91924 -1.59628,2.55689 0.9375,1.92094 1.71547,-0.43055 2.34375,-0.21333 2.34375,0.81031 0,0.76919 -0.84791,1.62027 -1.88424,1.89128 -1.58072,0.41336 -1.74138,0.86852 -0.99736,2.82545 0.48779,1.28298 0.63257,2.58701 0.32175,2.89785 -0.93349,0.93348 -2.16343,0.64036 -2.54578,-0.60673 z m 9.67669,-8.53338 -2.46018,-5.94087 2.99549,-1.08318 c 3.82796,-1.38421 4.26863,-1.36214 4.26863,0.21372 0,0.7133 -0.8862,1.52865 -1.96933,1.8119 -1.08776,0.28445 -1.69179,0.96404 -1.34935,1.51813 0.42348,0.68521 1.17664,0.7052 2.37645,0.0631 0.96605,-0.51701 1.99514,-0.94003 2.28685,-0.94003 0.80585,0 0.63411,2.81038 -0.17275,2.82685 -1.7242,0.0353 -3.05929,1.67494 -2.51616,3.09031 0.47326,1.23329 0.9773,1.34348 2.47615,0.54132 1.26401,-0.67648 2.19208,-0.69704 2.82651,-0.0626 0.63442,0.63442 9.4e-4,1.4325 -1.9291,2.4306 -1.58051,0.81732 -3.21102,1.48279 -3.62334,1.47883 -0.41232,-0.004 -1.85676,-2.68059 -3.20987,-5.94806 z m -101.27969,0.80914 c -0.522311,-0.52232 0.818715,-12.71397 1.470132,-13.36538 1.291187,-1.29119 2.139557,1.23232 1.727099,5.13731 l -0.471918,4.46794 3.316903,-3.15227 c 1.944536,-1.84802 3.775511,-2.86883 4.425311,-2.46723 0.742659,0.45899 -0.37906,2.19523 -3.399373,5.26165 -4.188033,4.25196 -5.923223,5.2629 -7.068154,4.11798 z m 112.86206,-5.98414 c -2.74536,-5.11402 -2.97653,-6.68224 -0.985,-6.68224 0.4364,0 1.72644,1.92039 2.86677,4.26755 1.75725,3.61695 2.39855,4.18592 4.20657,3.73214 2.99672,-0.75214 2.79443,1.71058 -0.25463,3.09982 -1.31332,0.5984 -2.49821,1.08799 -2.63308,1.08799 -0.13487,0 -1.57515,-2.47737 -3.20063,-5.50526 z m 9.28625,-5.38288 c -2.22418,-3.67397 -2.86072,-5.50332 -2.15909,-6.20495 0.70164,-0.70164 1.76973,0.27747 3.62282,3.32107 1.90908,3.13552 3.07429,4.18235 4.26007,3.82726 3.1074,-0.9305 3.78418,0.73634 1.03493,2.54894 -1.46694,0.96716 -2.8781,1.74928 -3.13591,1.73805 -0.25781,-0.0112 -1.88808,-2.3649 -3.62282,-5.23037 z M 70.3125,251.25 c -2.242974,-2.24298 -2.426693,-6.29514 -0.41559,-9.1664 1.907861,-2.72386 7.163362,-2.83583 9.79059,-0.2086 4.057672,4.05767 1.060867,11.25 -4.6875,11.25 -1.5625,0 -3.645833,-0.83333 -4.6875,-1.875 z m 7.869397,-3.04688 c 1.41058,-2.25281 -0.312321,-4.83626 -3.478132,-5.21536 -1.963523,-0.23513 -2.570684,0.18389 -3.053423,2.10728 -0.331405,1.32042 -0.348518,3.06278 -0.03802,3.87189 0.743586,1.93776 5.20263,1.41933 6.569582,-0.76381 z M 133.125,252.53883 C 116.97416,250.48779 104.51992,246.64031 91.345539,239.63194 81.032556,234.14573 74.530689,229.0454 64.17412,218.3175 45.335149,198.80307 35.890397,176.09671 34.93075,148.0128 33.811865,115.26876 44.16332,88.941242 67.123069,66.136027 91.443255,41.979532 125.36487,30.914147 159.3789,36.041757 c 23.80549,3.588675 43.64356,13.477397 60.37303,30.09427 22.95975,22.805215 33.3112,49.132733 32.19232,81.876773 -0.70553,20.64711 -5.43921,36.60742 -15.90326,53.62019 -5.22195,8.49001 -18.37715,22.81268 -27.2192,29.6348 -11.32204,8.73557 -29.21866,16.67782 -43.90627,19.48496 -8.04038,1.5367 -25.86741,2.53827 -31.79052,1.78608 z m 34.52608,-6.86902 c 47.64235,-11.75475 80.04354,-52.9053 80.12678,-101.76356 0.053,-31.09124 -12.79055,-59.174563 -36.37161,-79.529243 -12.30424,-10.620763 -25.71679,-17.528966 -43.56488,-22.43831 -10.3163,-2.837631 -38.49144,-2.837631 -48.80774,0 -17.84809,4.909344 -31.260644,11.817547 -43.56488,22.43831 -23.581058,20.35468 -36.424578,48.438003 -36.371609,79.529243 0.09073,53.25712 37.784308,95.99925 91.684109,103.96395 6.86688,1.01471 29.25406,-0.32136 36.86983,-2.20039 z m -39.68233,-0.0817 C 96.161287,240.63795 67.843535,220.5454 52.558353,192.08152 39.471859,167.71202 37.167093,136.85175 46.405098,109.69088 57.177277,78.01937 85.588315,52.246825 119.0625,43.781078 c 11.55121,-2.921344 37.19879,-2.921344 48.75,0 28.23541,7.14084 53.41468,26.837646 66.63346,52.124872 7.96983,15.24609 11.47766,29.91607 11.47766,48.0003 0,23.74625 -6.64267,43.78027 -20.5698,62.0377 -13.9799,18.3266 -34.13069,31.75558 -56.13507,37.40977 -10.53611,2.70734 -31.06572,3.81936 -41.25,2.2344 z m 25.3125,-1.86372 c 25.06849,-2.81576 44.84985,-12.46024 62.0736,-30.26425 13.02272,-13.46144 20.55202,-26.68624 25.34508,-44.5172 2.18346,-8.12286 2.44591,-10.80929 2.44591,-25.0367 0,-14.25458 -0.26007,-16.90541 -2.46293,-25.10377 C 237.77153,107.9672 231.34797,93.967247 225.59572,85.920452 204.65061,56.620412 169.04193,40.317091 134.00454,43.985716 91.175601,48.470164 57.345213,77.293869 46.192085,118.80248 c -2.202852,8.19836 -2.462923,10.84919 -2.462923,25.10377 0,14.22741 0.262445,16.91384 2.44591,25.0367 4.793052,17.83096 12.322355,31.05576 25.345076,44.5172 16.797274,17.36316 37.056012,27.43778 60.668992,30.17055 9.93698,1.15002 11.62111,1.1575 21.09211,0.0937 z m -24.375,-1.52329 c -11.85477,-1.90557 -30.755869,-8.60913 -32.274441,-11.44661 -1.2909,-2.41206 0.966638,-14.3585 3.766861,-19.93345 1.86948,-3.72196 6.78415,-8.32105 8.89201,-8.32105 0.73388,0 1.33432,0.84375 1.33432,1.875 0,1.03125 0.39116,1.875 0.86925,1.875 1.55058,0 6.57349,-6.85947 7.86912,-10.74638 0.6939,-2.08168 1.64835,-3.72438 2.121,-3.65045 1.22296,0.19128 4.25435,16.90107 3.92989,21.66245 -0.14934,2.19141 -0.13528,3.98438 0.0312,3.98438 0.87171,0 4.66296,-2.35046 6.52003,-4.04224 2.24332,-2.04364 3.54474,-1.53109 4.11534,1.6208 0.56599,3.12647 2.25607,2.63916 9.34662,-2.69496 3.7989,-2.85785 7.17636,-5.1961 7.50545,-5.1961 0.3291,0 0.83715,0.91312 1.129,2.02917 0.76904,2.94076 2.34273,1.28095 6.75762,-7.12739 2.04142,-3.88798 3.99966,-7.07361 4.35163,-7.07917 0.35197,-0.006 0.89671,0.79885 1.21052,1.78758 0.70989,2.23668 4.11679,6.63981 5.13753,6.63981 0.41699,0 1.25224,-1.96217 1.85611,-4.36037 0.60388,-2.3982 1.72315,-5.56935 2.48727,-7.04699 1.16493,-2.25276 1.68173,-2.53012 3.20009,-1.71753 1.50126,0.80346 2.08823,0.52572 3.43403,-1.62488 0.8928,-1.42669 1.71482,-2.73363 1.82671,-2.90431 0.1119,-0.17068 1.1103,0.175 2.21868,0.76818 1.53697,0.82257 2.34124,0.80793 3.38902,-0.0617 1.11129,-0.92229 1.81959,-0.72137 3.70668,1.05146 4.04584,3.80087 6.76232,11.08131 8.51871,22.83102 l 1.65294,11.05766 -2.29537,1.77755 c -8.57211,6.63831 -24.11726,13.93722 -36.04537,16.92438 -7.40087,1.8534 -29.96166,3.13013 -36.5625,2.06908 z M 93.045031,221.95312 c 0.307483,-4.78678 1.50415,-10.77129 3.140003,-15.70312 2.55901,-7.71499 2.974538,-8.31207 13.048876,-18.75 18.05237,-18.7039 21.38136,-25.84328 16.50619,-35.39939 -3.39359,-6.65199 -14.4812,-14.28811 -20.74628,-14.28811 -3.16782,0 -9.26637,2.77357 -11.186951,5.08773 -0.673175,0.81112 -1.541268,1.47477 -1.929098,1.47477 -1.432995,0 -4.940581,-13.09431 -4.39997,-16.4257 1.226459,-7.55778 6.927333,-11.73117 18.459699,-13.51365 5.56257,-0.85977 7.61872,-1.64307 9.84375,-3.75 4.44569,-4.20975 8.81457,-5.94246 16.76273,-6.64812 12.30858,-1.09281 20.94648,1.03846 34.33102,8.4707 1.80469,1.00211 7.60547,3.14813 12.89062,4.7689 5.28516,1.62078 9.60938,3.29679 9.60938,3.72447 0,0.42768 -2.27753,1.49552 -5.06119,2.37299 -4.98,1.5698 -5.03348,1.62512 -3.33453,3.44872 4.91657,5.27733 13.43132,25.65337 17.83585,42.68172 2.55845,9.89121 7.43487,41.50494 7.43487,48.20009 0,6.9111 -1.77175,0.1057 -4.20266,-16.14262 -2.60994,-17.44503 -6.70663,-34.42126 -11.14802,-46.19616 -5.9414,-15.75167 -13.88333,-28.77677 -18.42537,-30.21836 -2.69097,-0.85408 -2.26451,-2.09523 0.96355,-2.80423 3.98673,-0.87563 3.49598,-1.81342 -1.64062,-3.1351 -2.44922,-0.63021 -7.56722,-3.01189 -11.37333,-5.29262 -8.10222,-4.8551 -14.44347,-6.4714 -25.43152,-6.48218 -9.01507,-0.008 -15.46937,2.32467 -18.2755,6.60736 -1.4931,2.27876 -1.46822,2.48837 0.5504,4.6371 1.16281,1.23775 4.18765,3.18753 6.72185,4.33286 5.3934,2.43751 8.79673,7.37533 9.7185,14.10033 l 0.58986,4.30345 -6.24077,-2.26527 c -3.43242,-1.2459 -8.65318,-2.5126 -11.60169,-2.81488 l -5.36093,-0.54959 4.6875,2.30993 c 5.59288,2.75607 12.00897,9.15661 14.01812,13.98412 4.23113,10.1664 0.22803,18.93667 -16.07362,35.21519 -6.34126,6.33226 -12.42453,13.2675 -13.51839,15.41164 -2.107341,4.13073 -5.48686,18.81735 -5.507541,23.93454 -0.0066,1.67578 -0.49366,3.04687 -1.081966,3.04687 -0.754908,0 -0.923459,-2.27581 -0.572822,-7.73437 z m 7.940479,-88.50144 c 4.84449,-2.03009 16.59126,-1.56232 23.97814,0.95484 l 6.36991,2.17061 -0.60256,-2.89794 c -0.97853,-4.70614 -2.9506,-6.94802 -8.6407,-9.82282 -2.95436,-1.49261 -6.17521,-3.60373 -7.15748,-4.69136 -2.68674,-2.97496 -12.09188,-2.28005 -20.01282,1.47869 -5.491961,2.6061 -7.307566,9.07102 -4.460881,15.88411 l 1.396619,3.34258 3.056509,-2.57727 c 1.681078,-1.41749 4.41405,-3.14613 6.073263,-3.84144 z m 38.37977,-4.20093 c -0.95065,-0.55261 -2.34663,-2.48421 -3.10217,-4.29247 -0.75553,-1.80825 -2.22823,-3.5112 -3.27266,-3.78432 -2.96779,-0.77609 -0.0263,-2.09677 3.22267,-1.44696 1.48921,0.29784 5.5537,0.005 9.03219,-0.65182 5.49826,-1.03745 6.62004,-1.00281 8.58649,0.26513 1.24407,0.80216 3.94945,1.75473 6.01195,2.1168 2.0625,0.36207 4.37047,0.98951 5.12881,1.39431 2.17481,1.16086 -4.96419,2.16165 -10.33641,1.44901 C 151.05058,123.82478 150,123.97437 150,124.96054 c 0,2.03547 -4.12932,5.35458 -6.62292,5.32345 -1.25583,-0.0157 -3.06114,-0.48064 -4.0118,-1.03324 z m 6.37593,-5.43597 c 0.29666,-0.48 0.11062,-1.13771 -0.41342,-1.46158 -0.52403,-0.32387 -0.95279,0.0688 -0.95279,0.87272 0,1.64675 0.56256,1.88921 1.36621,0.58886 z m 71.82683,119.34004 c -1.06867,-1.3586 -1.94304,-3.46797 -1.94304,-4.6875 0,-5.73549 8.44251,-8.17163 12.11946,-3.49714 2.55166,3.2439 2.45312,5.54246 -0.3581,8.35368 -3.13147,3.13147 -7.27829,3.06007 -9.81832,-0.16904 z m 8.73885,-2.4517 c 1.60655,-2.56577 -0.41431,-4.92187 -4.22157,-4.92187 -2.6057,0 -3.23432,0.38975 -3.48541,2.16097 -0.16848,1.18855 0.21728,2.79191 0.85725,3.56303 1.4909,1.79642 5.51796,1.32484 6.84973,-0.80213 z m -166.828319,1.8391 c -0.354326,-0.92209 -0.381755,-3.45334 -0.06096,-5.625 l 0.583276,-3.94847 -2.299228,2.57812 c -2.460326,2.75877 -4.264163,3.33707 -4.264163,1.36708 0,-1.71538 8.075581,-9.43578 9.165364,-8.76226 0.549739,0.33976 0.5999,2.12388 0.128275,4.56249 -1.152766,5.96055 -1.048218,6.14967 1.565955,2.83269 1.320716,-1.67578 2.792601,-3.04687 3.270854,-3.04687 2.031387,0 0.582981,3.22484 -3.287797,7.3202 -3.549077,3.75498 -4.251609,4.15325 -4.80158,2.72202 z M 232.31024,230.72521 c -5.3646,-3.05555 -5.78943,-3.45617 -5.00716,-4.7219 0.4174,-0.67535 1.50494,-0.53665 3.37512,0.43046 3.08147,1.59348 3.47337,0.9404 1.29874,-2.16432 -2.08557,-2.97756 -0.88555,-4.24872 2.40471,-2.54726 3.89336,2.01333 4.13363,1.78687 1.91423,-1.80421 -1.34197,-2.17136 -1.64928,-3.41269 -0.95159,-3.84388 0.56675,-0.35027 1.14205,-0.48914 1.27845,-0.30861 5.54476,7.33911 7.12726,9.73167 7.12726,10.77557 0,1.61935 -1.70469,1.57031 -4.6875,-0.13481 -3.58728,-2.05068 -4.06954,-1.67569 -1.85131,1.43952 1.85983,2.6119 1.99628,5.73237 0.2401,5.49108 -0.4029,-0.0554 -2.71637,-1.2306 -5.14105,-2.61164 z m -185.641068,0.31896 c -0.285081,-0.28508 0.0463,-2.39445 0.736408,-4.6875 1.411268,-4.68929 1.024039,-5.07576 -2.123198,-2.11908 -1.526815,1.43436 -2.478442,1.75385 -3.168532,1.06376 -0.69009,-0.69009 0.500528,-2.28698 3.964275,-5.31698 5.662908,-4.95377 7.358568,-4.62017 5.641785,1.10993 -1.524979,5.08993 -1.448556,5.22269 1.711193,2.97276 4.930506,-3.51084 5.175344,-1.0035 0.326435,3.34295 -4.370132,3.91729 -5.979914,4.74262 -7.088366,3.63417 z M 246.97736,218.3503 c -0.40009,-0.64735 -0.0358,-1.62138 0.84816,-2.26775 2.49779,-1.82643 1.82611,-2.33297 -2.77282,-2.09112 -5.63966,0.2966 -7.53165,-1.92916 -4.34698,-5.11381 1.62947,-1.62948 2.33365,-1.83825 3.21785,-0.95405 0.8842,0.8842 0.73262,1.43568 -0.69271,2.52005 -1.67272,1.27258 -1.47039,1.34256 2.4305,0.84072 4.59318,-0.59091 6.97599,0.88656 6.36918,3.94923 -0.45603,2.30166 -4.14914,4.57951 -5.05318,3.11673 z M 36.586673,217.26562 C 36.613261,215.9767 44.937517,210 46.706112,210 c 2.24701,0 0.983138,1.78766 -3.583282,5.0683 -4.964034,3.56631 -6.575572,4.10807 -6.536157,2.19732 z m -6.167792,-20.65127 c -0.340717,-0.88789 -1.312631,-1.62718 -2.159808,-1.64286 -1.366358,-0.0253 -1.35503,-0.13643 0.100302,-0.98408 C 29.261719,193.46184 30,192.36832 30,191.55738 c 0,-1.18463 0.268357,-1.25174 1.365183,-0.34146 0.75085,0.62315 1.860269,0.82702 2.465374,0.45304 0.692332,-0.42788 0.928292,-0.19714 0.636498,0.62242 -0.25503,0.7163 -0.08906,2.03115 0.36882,2.92189 0.656491,1.27711 0.510593,1.496 -0.690049,1.03527 -0.84298,-0.32348 -1.876262,-0.012 -2.31501,0.69795 -0.640027,1.03559 -0.911605,0.9717 -1.411935,-0.33214 z M 253.125,195.70283 c 0,-0.85094 -0.73828,-1.97717 -1.64063,-2.50274 -1.5625,-0.91007 -1.5625,-0.95693 0,-0.98408 1.05465,-0.0183 1.64063,-0.76219 1.64063,-2.08269 0,-1.95828 0.0593,-1.97305 1.27068,-0.31643 0.83312,1.13935 1.84728,1.5165 2.94511,1.09523 1.35361,-0.51944 1.46629,-0.39177 0.58814,0.66634 -0.59745,0.71989 -0.79482,2.06841 -0.43859,2.99672 0.48916,1.27474 0.29162,1.55121 -0.8071,1.12959 -0.80012,-0.30704 -1.92804,-0.0849 -2.5065,0.49349 -0.77732,0.77732 -1.05174,0.64805 -1.05174,-0.49543 z M 23.749143,181.3356 c -0.590004,-1.2502 -0.69055,-2.2731 -0.223438,-2.2731 0.467112,0 0.849295,-0.63281 0.849295,-1.40625 0,-0.77344 0.421875,-1.40625 0.9375,-1.40625 0.515625,0 0.9375,0.4503 0.9375,1.00068 0,0.60156 0.841303,0.74649 2.109375,0.36337 1.681348,-0.50797 1.880486,-0.39653 0.981379,0.5492 -0.77696,0.81726 -0.843147,1.71874 -0.212682,2.89677 0.728609,1.36142 0.621607,1.59758 -0.524568,1.15775 -0.791936,-0.30389 -1.966775,-0.11526 -2.610755,0.4192 -0.860774,0.71438 -1.454979,0.36972 -2.243606,-1.30137 z m 235.029367,-0.0856 c -0.0157,-1.11719 -0.55585,-2.27734 -1.20039,-2.57813 -0.9375,-0.43749 -0.9375,-0.65625 0,-1.09374 0.64454,-0.30079 1.17188,-1.1962 1.17188,-1.9898 0,-1.15701 0.27051,-1.21841 1.36519,-0.30991 0.75084,0.62315 1.76073,0.88854 2.24418,0.58975 0.48345,-0.2988 0.81834,0.50834 0.74419,1.79362 -0.0742,1.28528 -0.64119,2.33719 -1.2601,2.33754 -0.61891,3.7e-4 -1.5553,0.73895 -2.08087,1.64129 -0.86106,1.47837 -0.95839,1.43973 -0.98408,-0.39062 z M 19.453125,165.78343 c -1.388217,-1.45617 -1.419749,-1.72093 -0.204952,-1.72093 0.78962,0 1.682639,-0.64358 1.984484,-1.43018 0.41413,-1.0792 0.856967,-1.17443 1.80451,-0.38804 0.690635,0.57317 1.801522,0.7139 2.468641,0.31272 0.984019,-0.59175 0.988717,-0.45248 0.02489,0.73796 -0.653427,0.80707 -0.965532,2.0482 -0.693566,2.75809 0.754883,1.9704 -3.449227,1.75986 -5.384009,-0.26962 z m 243.075385,-0.0803 c -0.0157,-0.90234 -0.66132,-1.64062 -1.43476,-1.64062 -0.77344,0 -1.40625,-0.42188 -1.40625,-0.9375 0,-0.51563 0.42187,-0.9375 0.9375,-0.9375 0.51562,0 0.9375,-0.58819 0.9375,-1.30707 0,-0.80654 0.90119,-1.2553 2.35331,-1.17188 1.3215,0.0759 2.17571,0.59892 1.94826,1.19283 -0.22278,0.5817 0.0682,1.53092 0.64669,2.10938 0.77732,0.77732 0.64805,1.05174 -0.49543,1.05174 -0.85094,0 -1.97717,0.73828 -2.50274,1.64062 -0.91007,1.56251 -0.95693,1.56251 -0.98408,0 z M 18.470934,150.3125 c 0.263818,-0.6875 0.01266,-1.25 -0.558132,-1.25 -0.570791,0 -1.037802,-0.42188 -1.037802,-0.9375 0,-0.51563 0.632812,-0.9375 1.40625,-0.9375 0.773437,0 1.40625,-0.38218 1.40625,-0.84929 0,-0.46712 1.022897,-0.36657 2.273105,0.22343 1.638346,0.77318 2.0085,1.39156 1.32554,2.21448 -0.52116,0.62796 -0.718864,1.51179 -0.439344,1.96406 0.279521,0.45227 -0.698625,0.82232 -2.173659,0.82232 -1.849733,0 -2.533044,-0.38786 -2.202208,-1.25 z m 244.463146,-2.02419 c -1.52201,-1.25094 -1.71232,-1.95019 -0.9375,-3.44456 1.06489,-2.05382 5.19092,-2.73281 5.19092,-0.85424 0,0.6433 0.25607,1.83696 0.56905,2.65256 0.36546,0.95238 0.058,1.48293 -0.85938,1.48293 -0.78563,0 -1.56904,0.3899 -1.74092,0.86644 -0.17188,0.47654 -1.17185,0.16013 -2.22217,-0.70313 z M 18.355638,133.82812 c 0.286393,-0.90234 0.07041,-1.64062 -0.479962,-1.64062 -0.550372,0 -1.000676,-0.44678 -1.000676,-0.99283 0,-0.54606 0.449945,-0.71474 0.999877,-0.37487 0.549931,0.33988 1.591202,-0.16257 2.313933,-1.11654 1.217193,-1.60665 1.316257,-1.61357 1.343875,-0.0939 0.0164,0.90235 0.622936,1.64063 1.34786,1.64063 1.036815,0 1.105644,0.45007 0.32258,2.10937 -1.23907,2.62558 -5.667964,3.05385 -4.847487,0.46875 z m 243.386512,-1.37191 c -1.74185,-0.33279 -1.95004,-0.67139 -1.06699,-1.7354 0.60341,-0.72706 0.89363,-1.85465 0.64494,-2.50575 -0.29555,-0.77377 0.49167,-1.21898 2.27271,-1.28535 1.61567,-0.0602 2.5822,0.32142 2.37437,0.9375 -0.19277,0.57147 0.31934,1.55297 1.13804,2.1811 1.34253,1.03005 1.32762,1.14498 -0.1521,1.17188 -0.90234,0.0164 -1.64062,0.45169 -1.64062,0.96731 0,0.51563 -0.31641,0.88005 -0.70313,0.80983 -0.38671,-0.0702 -1.67697,-0.31372 -2.86722,-0.54112 z M 22.994055,119.10344 c -0.304756,-0.49311 -1.067935,-0.69937 -1.695953,-0.45838 -2.175779,0.83492 -1.249358,-3.92698 0.967523,-4.97318 1.659299,-0.78307 2.109375,-0.71424 2.109375,0.32258 0,0.72492 0.738281,1.33146 1.640625,1.34785 1.519687,0.0277 1.512767,0.12669 -0.09388,1.34388 -0.953978,0.72273 -1.456424,1.764 -1.116547,2.31394 0.339877,0.54993 0.196083,0.99987 -0.319542,0.99987 -0.515625,0 -1.186846,-0.40345 -1.491602,-0.89656 z m 237.162195,-2.33586 c -1.03125,-0.54446 -1.97984,-1.96284 -2.10797,-3.15196 -0.14063,-1.30509 0.15434,-1.92267 0.74419,-1.55812 0.53744,0.33216 1.5915,0.0941 2.34234,-0.52908 1.09468,-0.9085 1.36519,-0.84709 1.36519,0.30991 0,0.7936 0.52734,1.65689 1.17187,1.91843 0.83398,0.33839 0.8745,0.69882 0.14057,1.24999 -0.56721,0.42597 -1.20002,1.21916 -1.40625,1.76262 -0.26265,0.69221 -0.93648,0.69166 -2.24994,-0.002 z M 27.748995,104.21257 c -0.438038,-0.70876 -1.510357,-0.91276 -2.742415,-0.52172 -1.793021,0.56908 -1.87762,0.46679 -0.743811,-0.89937 1.080753,-1.30223 1.080753,-1.78073 0,-3.082964 -1.134227,-1.36666 -1.048815,-1.468322 0.753128,-0.8964 1.440143,0.457078 2.31762,0.154978 3.011014,-1.03665 0.897175,-1.541832 0.980944,-1.51276 1.007081,0.349537 0.01567,1.117181 0.555852,2.245217 1.200383,2.506757 0.83397,0.33839 0.874504,0.69882 0.140572,1.24999 -0.567216,0.42597 -1.228259,1.38654 -1.468982,2.13458 -0.33475,1.04021 -0.60684,1.08636 -1.15697,0.19624 z m 227.719755,-1.96971 c -2.73943,-0.76574 -2.70739,-4.057697 0.0522,-5.360007 1.52996,-0.722025 2.29156,-0.755634 2.29156,-0.101128 0,0.539175 0.73828,1.540753 1.64062,2.225728 1.50071,1.139207 1.50657,1.247967 0.0687,1.275237 -0.86453,0.0164 -1.70828,0.58206 -1.875,1.25704 -0.18226,0.73792 -1.05069,1.01827 -2.17811,0.70313 z M 33.389225,89.474569 c -0.315151,-0.82127 -1.137413,-1.08111 -2.181862,-0.689485 -1.422431,0.533354 -1.496301,0.407054 -0.488063,-0.834479 0.653427,-0.804623 0.96517,-2.043768 0.692761,-2.753654 -0.339514,-0.884759 0.245111,-1.290701 1.858825,-1.290701 1.294762,0 2.354114,0.492187 2.354114,1.09375 0,0.601562 0.500977,1.260742 1.113281,1.464844 0.722734,0.240911 0.41928,1.065095 -0.865013,2.349388 -1.560121,1.560121 -2.085201,1.699704 -2.484043,0.660337 z M 246.9736,86.796875 c 0.0684,-2.319265 3.4776,-5.287008 4.06142,-3.535562 0.20418,0.612528 0.9292,1.113687 1.61115,1.113687 0.96892,0 1.01429,0.478111 0.20758,2.1875 -1.38595,2.936817 -5.96531,3.119343 -5.88015,0.234375 z M 41.25,75.9375 C 41.25,75.421875 40.565531,75 39.728958,75 c -1.225406,0 -1.300826,-0.265343 -0.388041,-1.365183 0.623151,-0.75085 0.888536,-1.760735 0.589746,-2.244188 -0.298791,-0.483454 0.442809,-0.81834 1.647998,-0.744192 C 44.036461,70.797649 46.801356,75 44.443045,75 43.718121,75 43.125,75.421875 43.125,75.9375 c 0,0.515625 -0.421875,0.9375 -0.9375,0.9375 -0.515625,0 -0.9375,-0.421875 -0.9375,-0.9375 z M 239.297,73.359375 C 238.52951,71.733296 238.5855,71.25 239.54133,71.25 c 0.68195,0 1.48601,-0.527344 1.7868,-1.171875 0.43749,-0.9375 0.65625,-0.9375 1.09374,0 0.30079,0.644531 1.1962,1.171875 1.9898,1.171875 1.15701,0 1.21841,0.270509 0.30991,1.365183 -0.62315,0.75085 -0.88854,1.760735 -0.58975,2.244188 0.2988,0.483454 -0.4428,0.81834 -1.64799,0.744192 -1.26435,-0.07778 -2.61239,-1.02708 -3.18684,-2.244188 z M 57.801363,60.42865 c 0.66744,-1.739321 -4.86239,-7.91343 -7.125895,-7.956131 -2.213976,-0.04177 4.284093,-5.597519 6.546921,-5.597519 1.095078,0 2.325541,0.977178 2.946458,2.339942 0.876326,1.923325 0.772936,2.663936 -0.580688,4.159674 -1.917187,2.118468 -1.241949,3.812884 1.519462,3.812884 1.64342,0 1.752482,0.219273 0.7249,1.457434 -0.665259,0.801588 -1.973047,1.866038 -2.906193,2.365444 -1.3611,0.728437 -1.583576,0.613394 -1.124965,-0.581728 z m 0.726532,-7.626345 c 0.770228,-2.007181 -1.657335,-4.49104 -3.644125,-3.728637 -1.385915,0.531825 -1.382993,0.776373 0.03513,2.940698 1.806603,2.757224 2.772399,2.968082 3.608999,0.787939 z m 165.021745,5.184528 c -2.03824,-2.138492 -3.02048,-3.648585 -2.18277,-3.355763 1.84989,0.646622 8.84757,-6.145014 7.90418,-7.671445 -1.03848,-1.680283 0.94233,-1.155845 2.6149,0.69232 1.86395,2.059646 2.0013,3.086793 0.32683,2.444239 -0.6771,-0.259829 -2.59875,1.239827 -4.29767,3.353901 -2.47878,3.084517 -2.85567,4.085661 -1.94925,5.17783 0.70824,0.853392 2.03718,1.160398 3.59453,0.830402 2.37378,-0.50299 2.39937,-0.465801 0.65105,0.946562 -1.00089,0.808567 -2.07543,1.470121 -2.38786,1.470121 -0.31243,0 -2.2357,-1.749675 -4.27394,-3.888167 z m -9.17279,-7.187134 c -1.13503,-1.254195 -1.26348,-1.975572 -0.48956,-2.749483 1.38048,-1.38048 0.33314,-3.987716 -1.60188,-3.987716 -0.8379,0 -1.73799,0.820408 -2.0002,1.82313 -0.40132,1.534625 -0.75832,1.647294 -2.25599,0.711987 -2.12865,-1.329369 -2.31275,-2.535117 -0.38705,-2.535117 0.76568,0 3.529,-1.314811 6.1407,-2.921801 2.61169,-1.606992 4.9369,-2.733424 5.16714,-2.503184 0.23024,0.230238 -0.24658,2.658576 -1.0596,5.396305 -0.81301,2.737728 -1.27295,5.762599 -1.02208,6.721934 0.57921,2.214877 -0.50944,2.234079 -2.49148,0.04394 z m 1.24815,-8.198777 c 0,-0.803868 -0.42876,-1.196593 -0.95279,-0.872721 -0.52404,0.323872 -0.71008,0.981582 -0.41342,1.461578 0.80365,1.300354 1.36621,1.057886 1.36621,-0.588857 z M 69.903457,50.338716 c 0.642609,-1.674614 -5.015686,-9.323147 -6.306827,-8.525178 -0.585083,0.361601 -0.856869,0.123428 -0.631314,-0.553236 0.629374,-1.888122 6.846769,-5.090434 8.586836,-4.422707 0.88527,0.33971 1.572848,1.616817 1.572848,2.921403 0,2.619094 0.929836,3.402253 5.074416,4.273954 2.829844,0.595182 2.848395,0.633794 0.832538,1.732918 -3.127058,1.704996 -8.882724,-1.195178 -8.151771,-4.107527 0.581487,-2.316829 -0.851667,-3.672225 -3.007973,-2.844772 -1.151182,0.44175 -0.873948,1.325709 1.496182,4.770574 1.600051,2.325596 3.627198,4.237736 4.504771,4.249201 1.254858,0.01639 1.095091,0.412339 -0.748163,1.854154 -2.736138,2.140237 -3.881804,2.371827 -3.221543,0.651216 z m 14.960542,-9.12148 c 0.928632,-1.502558 -3.224362,-10.114323 -5.082877,-10.539996 -0.936764,-0.214557 0.172172,-1.18034 2.953716,-2.572422 3.709825,-1.856659 4.649218,-2.018047 5.625,-0.966375 0.95318,1.027312 0.882743,1.16148 -0.378089,0.720178 -2.208238,-0.772904 -4.784199,1.362728 -4.026221,3.337986 0.809102,2.108485 3.223353,2.090179 3.261787,-0.02473 0.02698,-1.484491 0.160809,-1.467438 1.40625,0.179184 1.873627,2.477156 1.728778,3.253044 -0.498565,2.670581 -2.076068,-0.542905 -2.410361,0.726294 -0.923199,3.505081 1.197761,2.238037 3.356839,1.489906 5.132717,-1.778509 1.28109,-2.357784 1.342073,-2.374308 1.377946,-0.37338 0.02854,1.591922 -1.108381,2.674263 -4.744733,4.516941 -2.630248,1.332848 -4.476927,1.929306 -4.103732,1.325463 z M 198.28125,40.553043 c -1.88918,-1.047451 -2.34567,-1.659423 -1.39051,-1.864102 1.8862,-0.404188 5.98641,-8.228879 5.27858,-10.073458 -0.4808,-1.252942 -0.14565,-1.231947 2.46524,0.154431 2.05407,1.090713 2.55052,1.706248 1.55031,1.922199 -1.86426,0.40251 -5.69764,8.170531 -4.969,10.069313 0.66894,1.743252 0.57305,1.736443 -2.93462,-0.208383 z M 184.77546,34.60412 c -1.95553,-0.781957 -2.067,-1.054836 -0.83746,-2.04995 0.78009,-0.631357 2.13471,-3.007178 3.01027,-5.279605 1.7578,-4.562174 0.87639,-6.209188 -2.72217,-5.086683 -1.59891,0.498751 -1.6946,0.374066 -0.66501,-0.866516 1.07705,-1.297756 1.76143,-1.232658 6.55299,0.623325 3.16583,1.226266 5.47499,2.719644 5.65563,3.657615 0.16789,0.871857 -0.14754,1.585194 -0.70097,1.585194 -0.55343,0 -1.00624,-0.587677 -1.00624,-1.305948 0,-0.718271 -0.65056,-1.555592 -1.44569,-1.860711 -1.05241,-0.403847 -1.96008,0.645243 -3.33653,3.856401 -1.03997,2.426142 -1.69454,5.1619 -1.45458,6.079463 0.48851,1.86809 0.17097,1.935489 -3.05024,0.647415 z M 99.062503,33.125 c -1.382372,-1.382365 -0.506934,-2.129651 1.226597,-1.047044 1.40258,0.875929 2.1148,0.893137 2.93698,0.07096 1.67012,-1.670111 0.36729,-3.695869 -2.78202,-4.325728 -4.027548,-0.80551 -5.436001,-3.768746 -2.965548,-6.239202 2.25375,-2.25375 4.298578,-2.443233 5.056338,-0.468543 0.44251,1.153171 0.20217,1.242883 -1.24906,0.466215 -1.23779,-0.662447 -1.986428,-0.655227 -2.405715,0.0232 -1.076438,1.741699 0.257522,3.425785 3.175865,4.009453 3.87655,0.775312 5.53336,3.917508 3.34223,6.338676 -1.59359,1.760897 -5.09844,2.409245 -6.335667,1.172012 z m 70.008357,-8.232731 c -3.49833,-6.082465 -3.58925,-6.158262 -4.31759,-3.599658 -0.4092,1.437501 -0.54423,3.710871 -0.30005,5.051933 0.3924,2.155079 0.18184,2.388183 -1.81284,2.006876 -1.88723,-0.360767 -2.05091,-0.637316 -0.99951,-1.68872 1.41465,-1.414651 2.84788,-9.277058 1.95459,-10.722447 C 163.27584,15.423114 163.79232,15 164.74318,15 c 1.13329,0 2.68635,1.775092 4.50845,5.152972 1.52879,2.834134 3.09603,5.154447 3.48274,5.15625 0.68782,0.0032 1.13633,-3.528648 0.86272,-6.793597 -0.0908,-1.084221 0.52868,-1.640625 1.82677,-1.640625 1.50878,0 1.80412,0.380422 1.27367,1.640625 -0.37981,0.902344 -1.24041,3.897498 -1.91244,6.655898 -0.67204,2.7584 -1.42861,5.221996 -1.68127,5.474658 -0.25266,0.252662 -2.06749,-2.336598 -4.03296,-5.753912 z m -55.92714,4.089012 c 1.20388,-1.203875 -0.83177,-10.126189 -2.55302,-11.189979 -0.65184,-0.402856 -0.21679,-0.882399 1.12693,-1.242185 3.29987,-0.883556 3.84709,-0.746127 3.24778,0.815646 -0.93179,2.428223 1.43431,10.749354 3.08623,10.853687 1.58174,0.0999 -2.29207,1.531691 -4.56727,1.6881 -0.9785,0.06727 -1.07394,-0.191977 -0.34065,-0.925269 z M 125.25,26.613486 c 1.1839,-0.489044 0.62633,-9.590992 -0.68919,-11.25057 -0.57254,-0.722289 0.52246,-1.228304 3.55855,-1.644447 6.97245,-0.95568 11.48054,3.251223 9.5177,8.881827 -1.06239,3.047564 -4.34289,4.609649 -9.47804,4.513191 -2.16715,-0.04071 -3.47621,-0.265708 -2.90902,-0.500001 z m 9.20313,-2.273576 c 1.2652,-1.236553 1.04522,-6.20357 -0.34917,-7.883706 C 133.43926,15.655292 131.6241,15 130.07028,15 c -2.82157,0 -2.82438,0.0055 -2.22896,4.349598 0.3279,2.392279 0.59618,4.969264 0.59618,5.726632 0,1.031577 0.64678,1.2173 2.57812,0.740312 1.41797,-0.350197 2.96485,-1.014681 3.43751,-1.476632 z m 10.47407,1.206965 c 0.41404,-0.902344 0.77558,-4.071143 0.80342,-7.041777 0.0384,-4.098565 0.35174,-5.285566 1.29918,-4.921875 0.6867,0.263602 2.69061,0.479277 4.45313,0.479277 2.6164,0 3.20457,0.356427 3.20457,1.941965 0,1.790802 -0.11832,1.823644 -1.52004,0.421922 -1.86993,-1.86993 -4.44328,-1.50159 -4.8666,0.696589 -0.39845,2.06894 2.53531,3.296629 3.6544,1.529259 0.58915,-0.930439 0.83268,-0.509444 0.84289,1.45714 0.0112,2.151041 -0.23565,2.515625 -1.11065,1.640625 -1.86036,-1.860359 -3.5625,-1.278048 -3.5625,1.21875 0,1.941965 0.45,2.34375 2.625,2.34375 1.44375,0 3.18289,-0.527344 3.86476,-1.171875 1.02312,-0.967108 1.05012,-0.803295 0.15451,0.9375 -0.90939,1.767581 -1.85569,2.109375 -5.84005,2.109375 -4.19019,0 -4.66543,-0.194825 -4.00202,-1.640625 z"
     id="path4756"
     inkscape:connector-curvature="0" />
</svg>
